# Blender v2.79 (sub 0) OBJ File: 'hemisphere.blend'
# www.blender.org
mtllib hemisphere.mtl
g Hemisphere
v 0.000000 0.490393 -0.097545
v 0.000000 0.461940 -0.191342
v 0.000000 0.415735 -0.277785
v 0.000000 0.353553 -0.353553
v 0.000000 0.277785 -0.415735
v 0.000000 0.191342 -0.461940
v 0.000000 0.097545 -0.490393
v 0.000000 0.000000 -0.500000
v 0.019030 0.490393 -0.095671
v 0.037329 0.461940 -0.187665
v 0.054193 0.415735 -0.272447
v 0.068975 0.353553 -0.346760
v 0.081106 0.277785 -0.407746
v 0.090120 0.191342 -0.453064
v 0.095671 0.097545 -0.480970
v 0.097545 0.000000 -0.490393
v 0.037329 0.490393 -0.090120
v 0.073223 0.461940 -0.176777
v 0.106304 0.415735 -0.256640
v 0.135299 0.353553 -0.326641
v 0.159095 0.277785 -0.384089
v 0.176777 0.191342 -0.426777
v 0.187665 0.097545 -0.453064
v 0.191342 0.000000 -0.461940
v 0.054193 0.490393 -0.081106
v 0.106304 0.461940 -0.159095
v 0.154329 0.415735 -0.230970
v 0.196424 0.353553 -0.293969
v 0.230970 0.277785 -0.345671
v 0.256640 0.191342 -0.384089
v 0.272448 0.097545 -0.407746
v 0.277785 0.000000 -0.415735
v 0.068975 0.490393 -0.068975
v 0.135299 0.461940 -0.135299
v 0.196424 0.415735 -0.196424
v 0.250000 0.353553 -0.250000
v 0.293969 0.277785 -0.293969
v 0.326641 0.191342 -0.326641
v 0.346760 0.097545 -0.346760
v 0.353554 0.000000 -0.353553
v 0.081106 0.490393 -0.054193
v 0.159095 0.461940 -0.106304
v 0.230970 0.415735 -0.154329
v 0.293969 0.353553 -0.196424
v 0.345671 0.277785 -0.230970
v 0.384089 0.191342 -0.256640
v 0.407747 0.097545 -0.272447
v 0.415735 0.000000 -0.277785
v 0.090120 0.490393 -0.037329
v 0.176777 0.461940 -0.073223
v 0.256640 0.415735 -0.106304
v 0.326641 0.353553 -0.135299
v 0.384089 0.277785 -0.159095
v 0.426777 0.191342 -0.176777
v 0.453064 0.097545 -0.187665
v 0.461940 0.000000 -0.191342
v 0.095671 0.490393 -0.019030
v 0.187665 0.461940 -0.037329
v 0.272448 0.415735 -0.054193
v 0.346760 0.353553 -0.068975
v 0.407747 0.277785 -0.081106
v 0.453064 0.191342 -0.090120
v 0.480970 0.097545 -0.095671
v 0.490393 0.000000 -0.097545
v 0.097545 0.490393 0.000000
v 0.191342 0.461940 0.000000
v 0.277785 0.415735 0.000000
v 0.353553 0.353553 0.000000
v 0.415735 0.277785 0.000000
v 0.461940 0.191342 0.000000
v 0.490393 0.097545 0.000000
v 0.500000 0.000000 0.000000
v 0.095671 0.490393 0.019030
v 0.187665 0.461940 0.037329
v 0.272448 0.415735 0.054193
v 0.346760 0.353553 0.068975
v 0.407747 0.277785 0.081106
v 0.453064 0.191342 0.090120
v 0.480970 0.097545 0.095671
v 0.490393 0.000000 0.097545
v 0.090120 0.490393 0.037329
v 0.176777 0.461940 0.073223
v 0.256640 0.415735 0.106304
v 0.326641 0.353553 0.135299
v 0.384089 0.277785 0.159095
v 0.426777 0.191342 0.176777
v 0.453064 0.097545 0.187665
v 0.461940 0.000000 0.191342
v 0.081106 0.490393 0.054193
v 0.159095 0.461940 0.106304
v 0.230970 0.415735 0.154329
v 0.293969 0.353553 0.196424
v 0.345671 0.277785 0.230970
v 0.384089 0.191342 0.256640
v 0.407747 0.097545 0.272448
v 0.415735 0.000000 0.277785
v 0.068975 0.490393 0.068975
v 0.135299 0.461940 0.135299
v 0.196424 0.415735 0.196424
v 0.250000 0.353553 0.250000
v 0.293969 0.277785 0.293969
v 0.326641 0.191342 0.326641
v 0.346760 0.097545 0.346760
v 0.353553 0.000000 0.353554
v 0.054193 0.490393 0.081106
v 0.106304 0.461940 0.159095
v 0.154329 0.415735 0.230970
v 0.196424 0.353553 0.293969
v 0.230970 0.277785 0.345671
v 0.256640 0.191342 0.384089
v 0.272447 0.097545 0.407747
v 0.277785 0.000000 0.415735
v 0.037329 0.490393 0.090120
v 0.073223 0.461940 0.176777
v 0.106304 0.415735 0.256640
v 0.135299 0.353553 0.326641
v 0.159095 0.277785 0.384089
v 0.176777 0.191342 0.426777
v 0.187665 0.097545 0.453064
v 0.191342 0.000000 0.461940
v 0.019030 0.490393 0.095671
v 0.037329 0.461940 0.187665
v 0.054193 0.415735 0.272448
v 0.068975 0.353553 0.346760
v 0.081106 0.277785 0.407747
v 0.090120 0.191342 0.453064
v 0.095671 0.097545 0.480970
v 0.097545 0.000000 0.490393
v -0.000000 0.490393 0.097545
v 0.000000 0.461940 0.191342
v 0.000000 0.415735 0.277785
v -0.000000 0.353553 0.353553
v -0.000000 0.277785 0.415735
v 0.000000 0.191342 0.461940
v -0.000000 0.097545 0.490393
v -0.000000 0.000000 0.500000
v -0.019030 0.490393 0.095671
v -0.037329 0.461940 0.187665
v -0.054193 0.415735 0.272448
v -0.068975 0.353553 0.346760
v -0.081106 0.277785 0.407747
v -0.090120 0.191342 0.453064
v -0.095671 0.097545 0.480970
v -0.097545 0.000000 0.490393
v -0.037329 0.490393 0.090120
v -0.073223 0.461940 0.176777
v -0.106304 0.415735 0.256640
v -0.135299 0.353553 0.326641
v -0.159095 0.277785 0.384089
v -0.176777 0.191342 0.426777
v -0.187665 0.097545 0.453064
v -0.191342 0.000000 0.461940
v -0.054193 0.490393 0.081106
v -0.106304 0.461940 0.159095
v -0.154329 0.415735 0.230970
v -0.196424 0.353553 0.293969
v -0.230970 0.277785 0.345671
v -0.256640 0.191342 0.384089
v -0.272448 0.097545 0.407746
v -0.277785 0.000000 0.415735
v -0.000000 0.500000 0.000000
v -0.068975 0.490393 0.068975
v -0.135299 0.461940 0.135299
v -0.196424 0.415735 0.196424
v -0.250000 0.353553 0.250000
v -0.293969 0.277785 0.293969
v -0.326641 0.191342 0.326641
v -0.346760 0.097545 0.346760
v -0.353553 0.000000 0.353553
v -0.081106 0.490393 0.054193
v -0.159095 0.461940 0.106304
v -0.230970 0.415735 0.154329
v -0.293969 0.353553 0.196424
v -0.345671 0.277785 0.230970
v -0.384089 0.191342 0.256640
v -0.407746 0.097545 0.272447
v -0.415735 0.000000 0.277785
v -0.090120 0.490393 0.037329
v -0.176777 0.461940 0.073223
v -0.256640 0.415735 0.106304
v -0.326641 0.353553 0.135299
v -0.384089 0.277785 0.159095
v -0.426777 0.191342 0.176777
v -0.453064 0.097545 0.187665
v -0.461940 0.000000 0.191342
v -0.095671 0.490393 0.019030
v -0.187665 0.461940 0.037329
v -0.272448 0.415735 0.054193
v -0.346760 0.353553 0.068975
v -0.407746 0.277785 0.081106
v -0.453064 0.191342 0.090120
v -0.480970 0.097545 0.095671
v -0.490393 0.000000 0.097545
v -0.097545 0.490393 0.000000
v -0.191342 0.461940 0.000000
v -0.277785 0.415735 0.000000
v -0.353553 0.353553 0.000000
v -0.415735 0.277785 0.000000
v -0.461940 0.191342 0.000000
v -0.490392 0.097545 0.000000
v -0.500000 0.000000 0.000000
v -0.095671 0.490393 -0.019030
v -0.187665 0.461940 -0.037329
v -0.272448 0.415735 -0.054193
v -0.346760 0.353553 -0.068975
v -0.407746 0.277785 -0.081106
v -0.453064 0.191342 -0.090120
v -0.480970 0.097545 -0.095671
v -0.490393 0.000000 -0.097545
v -0.090120 0.490393 -0.037329
v -0.176777 0.461940 -0.073223
v -0.256640 0.415735 -0.106304
v -0.326641 0.353553 -0.135299
v -0.384089 0.277785 -0.159095
v -0.426777 0.191342 -0.176776
v -0.453063 0.097545 -0.187665
v -0.461940 0.000000 -0.191342
v -0.081106 0.490393 -0.054193
v -0.159095 0.461940 -0.106304
v -0.230970 0.415735 -0.154329
v -0.293969 0.353553 -0.196424
v -0.345671 0.277785 -0.230970
v -0.384089 0.191342 -0.256640
v -0.407746 0.097545 -0.272447
v -0.415735 0.000000 -0.277785
v -0.068975 0.490393 -0.068975
v -0.135299 0.461940 -0.135299
v -0.196424 0.415735 -0.196424
v -0.250000 0.353553 -0.250000
v -0.293969 0.277785 -0.293969
v -0.326641 0.191342 -0.326640
v -0.346760 0.097545 -0.346760
v -0.353553 0.000000 -0.353553
v -0.054193 0.490393 -0.081106
v -0.106304 0.461940 -0.159095
v -0.154329 0.415735 -0.230970
v -0.196424 0.353553 -0.293969
v -0.230970 0.277785 -0.345670
v -0.256640 0.191342 -0.384089
v -0.272447 0.097545 -0.407746
v -0.277785 0.000000 -0.415734
v -0.037329 0.490393 -0.090120
v -0.073223 0.461940 -0.176776
v -0.106304 0.415735 -0.256640
v -0.135299 0.353553 -0.326640
v -0.159095 0.277785 -0.384088
v -0.176777 0.191342 -0.426776
v -0.187665 0.097545 -0.453063
v -0.191342 0.000000 -0.461939
v -0.019030 0.490393 -0.095671
v -0.037329 0.461940 -0.187665
v -0.054193 0.415735 -0.272447
v -0.068975 0.353553 -0.346760
v -0.081106 0.277785 -0.407746
v -0.090120 0.191342 -0.453063
v -0.095671 0.097545 -0.480969
v -0.097545 0.000000 -0.490392
vn 0.0000 0.7040 -0.7101
vn 0.0000 0.8286 -0.5598
vn 0.1092 0.8286 -0.5490
vn 0.1385 0.7040 -0.6965
vn 0.0000 0.5528 -0.8333
vn 0.1626 0.5528 -0.8173
vn 0.0000 0.3805 -0.9247
vn 0.1804 0.3805 -0.9070
vn 0.0000 0.1939 -0.9810
vn 0.1914 0.1939 -0.9622
vn 0.0000 0.0980 -0.9952
vn 0.1941 0.0980 -0.9760
vn 0.0000 0.9796 -0.2010
vn 0.0000 1.0000 0.0000
vn 0.0392 0.9796 -0.1971
vn 0.0000 0.9217 -0.3879
vn 0.0757 0.9217 -0.3804
vn 0.1484 0.9217 -0.3583
vn 0.2142 0.8286 -0.5171
vn 0.2717 0.7040 -0.6561
vn 0.3189 0.5528 -0.7699
vn 0.3539 0.3805 -0.8544
vn 0.3754 0.1939 -0.9063
vn 0.3808 0.0980 -0.9194
vn 0.0769 0.9796 -0.1856
vn 0.5137 0.3805 -0.7689
vn 0.5450 0.1939 -0.8157
vn 0.5529 0.0980 -0.8274
vn 0.1116 0.9796 -0.1671
vn 0.2155 0.9217 -0.3225
vn 0.3110 0.8286 -0.4654
vn 0.3945 0.7040 -0.5904
vn 0.4630 0.5528 -0.6929
vn 0.3958 0.8286 -0.3958
vn 0.5021 0.7040 -0.5021
vn 0.5893 0.5528 -0.5893
vn 0.6539 0.3805 -0.6539
vn 0.6937 0.1939 -0.6937
vn 0.7037 0.0980 -0.7037
vn 0.1421 0.9796 -0.1421
vn 0.2743 0.9217 -0.2743
vn 0.8157 0.1939 -0.5450
vn 0.8274 0.0980 -0.5529
vn 0.1671 0.9796 -0.1116
vn 0.3225 0.9217 -0.2155
vn 0.4654 0.8286 -0.3110
vn 0.5904 0.7040 -0.3945
vn 0.6929 0.5528 -0.4630
vn 0.7689 0.3805 -0.5137
vn 0.5171 0.8286 -0.2142
vn 0.6561 0.7040 -0.2717
vn 0.7699 0.5528 -0.3189
vn 0.8544 0.3805 -0.3539
vn 0.9063 0.1939 -0.3754
vn 0.9194 0.0980 -0.3808
vn 0.1856 0.9796 -0.0769
vn 0.3583 0.9217 -0.1484
vn 0.9622 0.1939 -0.1914
vn 0.9760 0.0980 -0.1941
vn 0.1971 0.9796 -0.0392
vn 0.3804 0.9217 -0.0757
vn 0.5490 0.8286 -0.1092
vn 0.6965 0.7040 -0.1385
vn 0.8173 0.5528 -0.1626
vn 0.9070 0.3805 -0.1804
vn 0.7101 0.7040 0.0000
vn 0.8333 0.5528 0.0000
vn 0.9247 0.3805 0.0000
vn 0.9810 0.1939 0.0000
vn 0.9952 0.0980 0.0000
vn 0.2010 0.9796 0.0000
vn 0.3879 0.9217 0.0000
vn 0.5598 0.8286 0.0000
vn 0.1971 0.9796 0.0392
vn 0.3804 0.9217 0.0757
vn 0.5490 0.8286 0.1092
vn 0.6965 0.7040 0.1385
vn 0.8173 0.5528 0.1626
vn 0.9070 0.3805 0.1804
vn 0.9622 0.1939 0.1914
vn 0.9760 0.0980 0.1941
vn 0.6561 0.7040 0.2717
vn 0.7699 0.5528 0.3189
vn 0.8544 0.3805 0.3539
vn 0.9063 0.1939 0.3754
vn 0.9194 0.0980 0.3808
vn 0.1856 0.9796 0.0769
vn 0.3583 0.9217 0.1484
vn 0.5171 0.8286 0.2142
vn 0.1671 0.9796 0.1116
vn 0.3225 0.9217 0.2155
vn 0.4654 0.8286 0.3110
vn 0.5904 0.7040 0.3945
vn 0.6929 0.5528 0.4630
vn 0.7689 0.3805 0.5137
vn 0.8157 0.1939 0.5450
vn 0.8274 0.0980 0.5529
vn 0.5893 0.5528 0.5893
vn 0.6539 0.3805 0.6539
vn 0.6937 0.1939 0.6937
vn 0.7037 0.0980 0.7037
vn 0.1421 0.9796 0.1421
vn 0.2743 0.9217 0.2743
vn 0.3958 0.8286 0.3958
vn 0.5021 0.7040 0.5021
vn 0.2155 0.9217 0.3225
vn 0.3110 0.8286 0.4654
vn 0.3945 0.7040 0.5904
vn 0.4630 0.5528 0.6929
vn 0.5137 0.3805 0.7689
vn 0.5450 0.1939 0.8157
vn 0.5529 0.0980 0.8274
vn 0.1116 0.9796 0.1671
vn 0.3539 0.3805 0.8544
vn 0.3754 0.1939 0.9063
vn 0.3808 0.0980 0.9194
vn 0.0769 0.9796 0.1856
vn 0.1484 0.9217 0.3583
vn 0.2142 0.8286 0.5171
vn 0.2717 0.7040 0.6561
vn 0.3189 0.5528 0.7699
vn 0.0757 0.9217 0.3804
vn 0.1092 0.8286 0.5490
vn 0.1385 0.7040 0.6965
vn 0.1626 0.5528 0.8173
vn 0.1804 0.3805 0.9070
vn 0.1914 0.1939 0.9622
vn 0.1941 0.0980 0.9760
vn 0.0392 0.9796 0.1971
vn 0.0000 0.3805 0.9247
vn 0.0000 0.1939 0.9810
vn 0.0000 0.0980 0.9952
vn 0.0000 0.9796 0.2010
vn 0.0000 0.9217 0.3879
vn 0.0000 0.8286 0.5598
vn 0.0000 0.7040 0.7101
vn 0.0000 0.5528 0.8333
vn -0.1092 0.8286 0.5490
vn -0.1385 0.7040 0.6965
vn -0.1626 0.5528 0.8173
vn -0.1804 0.3805 0.9070
vn -0.1914 0.1939 0.9622
vn -0.1941 0.0980 0.9760
vn -0.0392 0.9796 0.1971
vn -0.0757 0.9217 0.3804
vn -0.3754 0.1939 0.9063
vn -0.3808 0.0980 0.9194
vn -0.0769 0.9796 0.1856
vn -0.1484 0.9217 0.3583
vn -0.2142 0.8286 0.5171
vn -0.2717 0.7040 0.6561
vn -0.3189 0.5528 0.7699
vn -0.3539 0.3805 0.8544
vn -0.3110 0.8286 0.4654
vn -0.3945 0.7040 0.5904
vn -0.4630 0.5528 0.6929
vn -0.5137 0.3805 0.7689
vn -0.5450 0.1939 0.8157
vn -0.5529 0.0980 0.8274
vn -0.1116 0.9796 0.1671
vn -0.2155 0.9217 0.3225
vn -0.6937 0.1939 0.6937
vn -0.7037 0.0980 0.7037
vn -0.1421 0.9796 0.1421
vn -0.2743 0.9217 0.2743
vn -0.3958 0.8286 0.3958
vn -0.5021 0.7040 0.5021
vn -0.5893 0.5528 0.5893
vn -0.6539 0.3805 0.6539
vn -0.5904 0.7040 0.3945
vn -0.6929 0.5528 0.4630
vn -0.7689 0.3805 0.5137
vn -0.8157 0.1939 0.5450
vn -0.8274 0.0980 0.5529
vn -0.1671 0.9796 0.1116
vn -0.3225 0.9217 0.2155
vn -0.4654 0.8286 0.3110
vn -0.1856 0.9796 0.0769
vn -0.3583 0.9217 0.1484
vn -0.5171 0.8286 0.2142
vn -0.6561 0.7040 0.2717
vn -0.7699 0.5528 0.3189
vn -0.8544 0.3805 0.3539
vn -0.9063 0.1939 0.3754
vn -0.9194 0.0980 0.3808
vn -0.8173 0.5528 0.1626
vn -0.9070 0.3805 0.1804
vn -0.9622 0.1939 0.1914
vn -0.9760 0.0980 0.1941
vn -0.1971 0.9796 0.0392
vn -0.3804 0.9217 0.0757
vn -0.5490 0.8286 0.1092
vn -0.6965 0.7040 0.1385
vn -0.2010 0.9796 0.0000
vn -0.3879 0.9217 0.0000
vn -0.5598 0.8286 0.0000
vn -0.7101 0.7040 0.0000
vn -0.8333 0.5528 0.0000
vn -0.9247 0.3805 0.0000
vn -0.9810 0.1939 0.0000
vn -0.9952 0.0980 0.0000
vn -0.8173 0.5528 -0.1626
vn -0.9070 0.3805 -0.1804
vn -0.9622 0.1939 -0.1914
vn -0.9760 0.0980 -0.1941
vn -0.1971 0.9796 -0.0392
vn -0.3804 0.9217 -0.0757
vn -0.5490 0.8286 -0.1092
vn -0.6965 0.7040 -0.1385
vn -0.3583 0.9217 -0.1484
vn -0.5171 0.8286 -0.2142
vn -0.6561 0.7040 -0.2717
vn -0.7699 0.5528 -0.3189
vn -0.8544 0.3805 -0.3539
vn -0.9063 0.1939 -0.3754
vn -0.9194 0.0980 -0.3808
vn -0.1856 0.9796 -0.0769
vn -0.7689 0.3805 -0.5137
vn -0.8157 0.1939 -0.5450
vn -0.8274 0.0980 -0.5529
vn -0.1671 0.9796 -0.1116
vn -0.3225 0.9217 -0.2155
vn -0.4654 0.8286 -0.3110
vn -0.5904 0.7040 -0.3945
vn -0.6929 0.5528 -0.4630
vn -0.2743 0.9217 -0.2743
vn -0.3958 0.8286 -0.3958
vn -0.5021 0.7040 -0.5021
vn -0.5893 0.5528 -0.5893
vn -0.6539 0.3805 -0.6539
vn -0.6937 0.1939 -0.6937
vn -0.7037 0.0980 -0.7037
vn -0.1421 0.9796 -0.1421
vn -0.5137 0.3805 -0.7689
vn -0.5450 0.1939 -0.8157
vn -0.5529 0.0980 -0.8274
vn -0.1116 0.9796 -0.1671
vn -0.2155 0.9217 -0.3225
vn -0.3110 0.8286 -0.4654
vn -0.3945 0.7040 -0.5904
vn -0.4630 0.5528 -0.6929
vn -0.2142 0.8286 -0.5171
vn -0.2717 0.7040 -0.6561
vn -0.3189 0.5528 -0.7699
vn -0.3539 0.3805 -0.8544
vn -0.3754 0.1939 -0.9063
vn -0.3808 0.0980 -0.9194
vn -0.0769 0.9796 -0.1856
vn -0.1484 0.9217 -0.3583
vn -0.1914 0.1939 -0.9622
vn -0.1941 0.0980 -0.9760
vn -0.0392 0.9796 -0.1971
vn -0.0757 0.9217 -0.3804
vn -0.1092 0.8286 -0.5490
vn -0.1385 0.7040 -0.6965
vn -0.1626 0.5528 -0.8173
vn -0.1804 0.3805 -0.9070
usemtl None
s 1
f 4//1 3//2 11//3 12//4
f 5//5 4//1 12//4 13//6
f 6//7 5//5 13//6 14//8
f 7//9 6//7 14//8 15//10
f 8//11 7//9 15//10 16//12
f 1//13 161//14 9//15
f 2//16 1//13 9//15 10//17
f 3//2 2//16 10//17 11//3
f 11//3 10//17 18//18 19//19
f 12//4 11//3 19//19 20//20
f 13//6 12//4 20//20 21//21
f 14//8 13//6 21//21 22//22
f 15//10 14//8 22//22 23//23
f 16//12 15//10 23//23 24//24
f 9//15 161//14 17//25
f 10//17 9//15 17//25 18//18
f 23//23 22//22 30//26 31//27
f 24//24 23//23 31//27 32//28
f 17//25 161//14 25//29
f 18//18 17//25 25//29 26//30
f 19//19 18//18 26//30 27//31
f 20//20 19//19 27//31 28//32
f 21//21 20//20 28//32 29//33
f 22//22 21//21 29//33 30//26
f 28//32 27//31 35//34 36//35
f 29//33 28//32 36//35 37//36
f 30//26 29//33 37//36 38//37
f 31//27 30//26 38//37 39//38
f 32//28 31//27 39//38 40//39
f 25//29 161//14 33//40
f 26//30 25//29 33//40 34//41
f 27//31 26//30 34//41 35//34
f 40//39 39//38 47//42 48//43
f 33//40 161//14 41//44
f 34//41 33//40 41//44 42//45
f 35//34 34//41 42//45 43//46
f 36//35 35//34 43//46 44//47
f 37//36 36//35 44//47 45//48
f 38//37 37//36 45//48 46//49
f 39//38 38//37 46//49 47//42
f 44//47 43//46 51//50 52//51
f 45//48 44//47 52//51 53//52
f 46//49 45//48 53//52 54//53
f 47//42 46//49 54//53 55//54
f 48//43 47//42 55//54 56//55
f 41//44 161//14 49//56
f 42//45 41//44 49//56 50//57
f 43//46 42//45 50//57 51//50
f 56//55 55//54 63//58 64//59
f 49//56 161//14 57//60
f 50//57 49//56 57//60 58//61
f 51//50 50//57 58//61 59//62
f 52//51 51//50 59//62 60//63
f 53//52 52//51 60//63 61//64
f 54//53 53//52 61//64 62//65
f 55//54 54//53 62//65 63//58
f 61//64 60//63 68//66 69//67
f 62//65 61//64 69//67 70//68
f 63//58 62//65 70//68 71//69
f 64//59 63//58 71//69 72//70
f 57//60 161//14 65//71
f 58//61 57//60 65//71 66//72
f 59//62 58//61 66//72 67//73
f 60//63 59//62 67//73 68//66
f 65//71 161//14 73//74
f 66//72 65//71 73//74 74//75
f 67//73 66//72 74//75 75//76
f 68//66 67//73 75//76 76//77
f 69//67 68//66 76//77 77//78
f 70//68 69//67 77//78 78//79
f 71//69 70//68 78//79 79//80
f 72//70 71//69 79//80 80//81
f 77//78 76//77 84//82 85//83
f 78//79 77//78 85//83 86//84
f 79//80 78//79 86//84 87//85
f 80//81 79//80 87//85 88//86
f 73//74 161//14 81//87
f 74//75 73//74 81//87 82//88
f 75//76 74//75 82//88 83//89
f 76//77 75//76 83//89 84//82
f 82//88 81//87 89//90 90//91
f 83//89 82//88 90//91 91//92
f 84//82 83//89 91//92 92//93
f 85//83 84//82 92//93 93//94
f 86//84 85//83 93//94 94//95
f 87//85 86//84 94//95 95//96
f 88//86 87//85 95//96 96//97
f 81//87 161//14 89//90
f 94//95 93//94 101//98 102//99
f 95//96 94//95 102//99 103//100
f 96//97 95//96 103//100 104//101
f 89//90 161//14 97//102
f 90//91 89//90 97//102 98//103
f 91//92 90//91 98//103 99//104
f 92//93 91//92 99//104 100//105
f 93//94 92//93 100//105 101//98
f 99//104 98//103 106//106 107//107
f 100//105 99//104 107//107 108//108
f 101//98 100//105 108//108 109//109
f 102//99 101//98 109//109 110//110
f 103//100 102//99 110//110 111//111
f 104//101 103//100 111//111 112//112
f 97//102 161//14 105//113
f 98//103 97//102 105//113 106//106
f 111//111 110//110 118//114 119//115
f 112//112 111//111 119//115 120//116
f 105//113 161//14 113//117
f 106//106 105//113 113//117 114//118
f 107//107 106//106 114//118 115//119
f 108//108 107//107 115//119 116//120
f 109//109 108//108 116//120 117//121
f 110//110 109//109 117//121 118//114
f 115//119 114//118 122//122 123//123
f 116//120 115//119 123//123 124//124
f 117//121 116//120 124//124 125//125
f 118//114 117//121 125//125 126//126
f 119//115 118//114 126//126 127//127
f 120//116 119//115 127//127 128//128
f 113//117 161//14 121//129
f 114//118 113//117 121//129 122//122
f 127//127 126//126 134//130 135//131
f 128//128 127//127 135//131 136//132
f 121//129 161//14 129//133
f 122//122 121//129 129//133 130//134
f 123//123 122//122 130//134 131//135
f 124//124 123//123 131//135 132//136
f 125//125 124//124 132//136 133//137
f 126//126 125//125 133//137 134//130
f 132//136 131//135 139//138 140//139
f 133//137 132//136 140//139 141//140
f 134//130 133//137 141//140 142//141
f 135//131 134//130 142//141 143//142
f 136//132 135//131 143//142 144//143
f 129//133 161//14 137//144
f 130//134 129//133 137//144 138//145
f 131//135 130//134 138//145 139//138
f 144//143 143//142 151//146 152//147
f 137//144 161//14 145//148
f 138//145 137//144 145//148 146//149
f 139//138 138//145 146//149 147//150
f 140//139 139//138 147//150 148//151
f 141//140 140//139 148//151 149//152
f 142//141 141//140 149//152 150//153
f 143//142 142//141 150//153 151//146
f 148//151 147//150 155//154 156//155
f 149//152 148//151 156//155 157//156
f 150//153 149//152 157//156 158//157
f 151//146 150//153 158//157 159//158
f 152//147 151//146 159//158 160//159
f 145//148 161//14 153//160
f 146//149 145//148 153//160 154//161
f 147//150 146//149 154//161 155//154
f 160//159 159//158 168//162 169//163
f 153//160 161//14 162//164
f 154//161 153//160 162//164 163//165
f 155//154 154//161 163//165 164//166
f 156//155 155//154 164//166 165//167
f 157//156 156//155 165//167 166//168
f 158//157 157//156 166//168 167//169
f 159//158 158//157 167//169 168//162
f 166//168 165//167 173//170 174//171
f 167//169 166//168 174//171 175//172
f 168//162 167//169 175//172 176//173
f 169//163 168//162 176//173 177//174
f 162//164 161//14 170//175
f 163//165 162//164 170//175 171//176
f 164//166 163//165 171//176 172//177
f 165//167 164//166 172//177 173//170
f 171//176 170//175 178//178 179//179
f 172//177 171//176 179//179 180//180
f 173//170 172//177 180//180 181//181
f 174//171 173//170 181//181 182//182
f 175//172 174//171 182//182 183//183
f 176//173 175//172 183//183 184//184
f 177//174 176//173 184//184 185//185
f 170//175 161//14 178//178
f 183//183 182//182 190//186 191//187
f 184//184 183//183 191//187 192//188
f 185//185 184//184 192//188 193//189
f 178//178 161//14 186//190
f 179//179 178//178 186//190 187//191
f 180//180 179//179 187//191 188//192
f 181//181 180//180 188//192 189//193
f 182//182 181//181 189//193 190//186
f 187//191 186//190 194//194 195//195
f 188//192 187//191 195//195 196//196
f 189//193 188//192 196//196 197//197
f 190//186 189//193 197//197 198//198
f 191//187 190//186 198//198 199//199
f 192//188 191//187 199//199 200//200
f 193//189 192//188 200//200 201//201
f 186//190 161//14 194//194
f 199//199 198//198 206//202 207//203
f 200//200 199//199 207//203 208//204
f 201//201 200//200 208//204 209//205
f 194//194 161//14 202//206
f 195//195 194//194 202//206 203//207
f 196//196 195//195 203//207 204//208
f 197//197 196//196 204//208 205//209
f 198//198 197//197 205//209 206//202
f 204//208 203//207 211//210 212//211
f 205//209 204//208 212//211 213//212
f 206//202 205//209 213//212 214//213
f 207//203 206//202 214//213 215//214
f 208//204 207//203 215//214 216//215
f 209//205 208//204 216//215 217//216
f 202//206 161//14 210//217
f 203//207 202//206 210//217 211//210
f 216//215 215//214 223//218 224//219
f 217//216 216//215 224//219 225//220
f 210//217 161//14 218//221
f 211//210 210//217 218//221 219//222
f 212//211 211//210 219//222 220//223
f 213//212 212//211 220//223 221//224
f 214//213 213//212 221//224 222//225
f 215//214 214//213 222//225 223//218
f 220//223 219//222 227//226 228//227
f 221//224 220//223 228//227 229//228
f 222//225 221//224 229//228 230//229
f 223//218 222//225 230//229 231//230
f 224//219 223//218 231//230 232//231
f 225//220 224//219 232//231 233//232
f 218//221 161//14 226//233
f 219//222 218//221 226//233 227//226
f 232//231 231//230 239//234 240//235
f 233//232 232//231 240//235 241//236
f 226//233 161//14 234//237
f 227//226 226//233 234//237 235//238
f 228//227 227//226 235//238 236//239
f 229//228 228//227 236//239 237//240
f 230//229 229//228 237//240 238//241
f 231//230 230//229 238//241 239//234
f 237//240 236//239 244//242 245//243
f 238//241 237//240 245//243 246//244
f 239//234 238//241 246//244 247//245
f 240//235 239//234 247//245 248//246
f 241//236 240//235 248//246 249//247
f 234//237 161//14 242//248
f 235//238 234//237 242//248 243//249
f 236//239 235//238 243//249 244//242
f 249//247 248//246 256//250 257//251
f 242//248 161//14 250//252
f 243//249 242//248 250//252 251//253
f 244//242 243//249 251//253 252//254
f 245//243 244//242 252//254 253//255
f 246//244 245//243 253//255 254//256
f 247//245 246//244 254//256 255//257
f 248//246 247//245 255//257 256//250
f 254//256 253//255 4//1 5//5
f 255//257 254//256 5//5 6//7
f 256//250 255//257 6//7 7//9
f 257//251 256//250 7//9 8//11
f 250//252 161//14 1//13
f 251//253 250//252 1//13 2//16
f 252//254 251//253 2//16 3//2
f 253//255 252//254 3//2 4//1
