# Blender v2.79 (sub 0) OBJ File: 'tile.blend'
# www.blender.org
mtllib tile.mtl
g Tile
v 0.500000 -0.050000 -0.500000
v 0.500000 -0.050000 0.500000
v -0.500000 -0.050000 0.500000
v -0.500000 -0.050000 -0.500000
v 0.500000 0.050000 -0.499999
v 0.499999 0.050000 0.500000
v -0.500000 0.050000 0.500000
v -0.500000 0.050000 -0.500000
vn 0.5773 -0.5773 -0.5773
vn 0.5773 -0.5773 0.5773
vn -0.5773 -0.5773 0.5773
vn -0.5773 -0.5773 -0.5773
vn 0.5773 0.5773 -0.5773
vn -0.5773 0.5773 -0.5773
vn -0.5773 0.5773 0.5773
vn 0.5773 0.5773 0.5773
usemtl Material
s 1
f 1//1 2//2 3//3 4//4
f 5//5 8//6 7//7 6//8
f 1//1 5//5 6//8 2//2
f 2//2 6//8 7//7 3//3
f 3//3 7//7 8//6 4//4
f 5//5 1//1 4//4 8//6
